<?xml version="1.0" encoding="UTF-8"?><svg id="_イヤー_1" xmlns="http://www.w3.org/2000/svg" viewBox="0 0 1000 1000"><defs><style>.cls-1{fill:#fff;}</style></defs><polygon class="cls-1" points="767.48 289.38 730.28 326.58 905.56 501.86 683.2 724.23 372.65 602.27 512.68 546.94 591.94 617 626.48 577.92 567.11 525.44 710.2 468.9 712.55 421.46 358.98 239.44 501.06 97.36 676.34 272.64 713.54 235.44 501.06 22.95 22.14 501.86 234.63 714.35 271.83 677.15 96.55 501.86 320.25 278.16 637.56 441.52 523.26 486.68 410.17 386.73 375.63 425.81 468.83 508.19 291.92 578.09 291.97 626.62 642.97 764.46 501.06 906.37 325.77 731.09 288.57 768.29 501.06 980.78 979.97 501.86 767.48 289.38"/></svg>